<svg width="23" height="23" viewBox="0 0 23 23" fill="none" xmlns="http://www.w3.org/2000/svg">
<path d="M4.19966 0C1.87323 0 0 1.87323 0 4.19965V18.8003C0 21.1267 1.87323 23 4.19966 23H12.1131V14.0084H9.73549V10.7712H12.1131V8.00543C12.1131 5.83251 13.5179 3.8374 16.7541 3.8374C18.0643 3.8374 19.0332 3.96319 19.0332 3.96319L18.957 6.98626C18.957 6.98626 17.9689 6.97692 16.8906 6.97692C15.7236 6.97692 15.5365 7.51461 15.5365 8.40724V10.7712H19.0497L18.8967 14.0084H15.5365V23H18.8003C21.1268 23 23 21.1268 23 18.8003V4.19968C23 1.87325 21.1268 2.3e-05 18.8003 2.3e-05H4.19964L4.19966 0Z" fill="#FBFAFF"/>
</svg>
