<svg width="24" height="23" viewBox="0 0 24 23" fill="none" xmlns="http://www.w3.org/2000/svg">
<path d="M11.904 7.66503C9.79241 7.66503 8.06915 9.38832 8.06915 11.5C8.06915 13.6117 9.79241 15.335 11.904 15.335C14.0157 15.335 15.7389 13.6117 15.7389 11.5C15.7389 9.38832 14.0157 7.66503 11.904 7.66503ZM23.4059 11.5C23.4059 9.91193 23.4202 8.33824 23.3311 6.75304C23.2419 4.9118 22.8218 3.27769 21.4755 1.93128C20.1262 0.581998 18.495 0.164841 16.6538 0.0756562C15.0657 -0.013529 13.4921 0.00085573 11.9069 0.00085573C10.3189 0.00085573 8.74522 -0.013529 7.16005 0.0756562C5.31884 0.164841 3.68477 0.584875 2.33838 1.93128C0.989123 3.28057 0.571973 4.9118 0.48279 6.75304C0.393606 8.34112 0.407991 9.9148 0.407991 11.5C0.407991 13.0852 0.393606 14.6618 0.48279 16.247C0.571973 18.0882 0.992 19.7223 2.33838 21.0687C3.68765 22.418 5.31884 22.8352 7.16005 22.9243C8.7481 23.0135 10.3218 22.9991 11.9069 22.9991C13.495 22.9991 15.0686 23.0135 16.6538 22.9243C18.495 22.8352 20.1291 22.4151 21.4755 21.0687C22.8247 19.7194 23.2419 18.0882 23.3311 16.247C23.4231 14.6618 23.4059 13.0881 23.4059 11.5ZM11.904 17.4006C8.63877 17.4006 6.00354 14.7653 6.00354 11.5C6.00354 8.23467 8.63877 5.59939 11.904 5.59939C15.1693 5.59939 17.8045 8.23467 17.8045 11.5C17.8045 14.7653 15.1693 17.4006 11.904 17.4006ZM18.0462 6.73578C17.2838 6.73578 16.6682 6.12012 16.6682 5.35773C16.6682 4.59534 17.2838 3.97967 18.0462 3.97967C18.8086 3.97967 19.4242 4.59534 19.4242 5.35773C19.4245 5.53876 19.389 5.71806 19.3198 5.88535C19.2506 6.05265 19.1491 6.20466 19.0211 6.33266C18.8931 6.46067 18.7411 6.56217 18.5738 6.63135C18.4065 6.70052 18.2272 6.73601 18.0462 6.73578Z" fill="#FBFAFF"/>
</svg>
