<svg width="23" height="23" viewBox="0 0 23 23" fill="none" xmlns="http://www.w3.org/2000/svg">
<path d="M19.1667 7.21745C18.6076 7.46701 18.0037 7.63672 17.3548 7.72656C18.0336 7.32726 18.4978 6.74327 18.7474 5.97461C18.0985 6.35395 17.4297 6.60851 16.7409 6.73828C16.1319 6.07943 15.3683 5.75 14.4499 5.75C13.5814 5.75 12.8402 6.05697 12.2262 6.6709C11.6123 7.28483 11.3053 8.02604 11.3053 8.89453C11.3053 9.18403 11.3303 9.42361 11.3802 9.61328C10.0924 9.5434 8.88455 9.21897 7.75651 8.63997C6.62847 8.06098 5.67014 7.28733 4.88151 6.31901C4.59201 6.81814 4.44727 7.34722 4.44727 7.90625C4.44727 9.04427 4.90148 9.91775 5.8099 10.5267C5.34071 10.5167 4.84158 10.3869 4.3125 10.1374V10.1673C4.3125 10.916 4.56207 11.5824 5.0612 12.1663C5.56033 12.7503 6.17426 13.1122 6.90299 13.252C6.6135 13.3318 6.35894 13.3717 6.13932 13.3717C6.00955 13.3717 5.81489 13.3518 5.55534 13.3118C5.76497 13.9408 6.13683 14.4599 6.6709 14.8691C7.20497 15.2784 7.81141 15.4881 8.49023 15.498C7.33225 16.3965 6.02951 16.8457 4.58203 16.8457C4.32248 16.8457 4.07292 16.8307 3.83333 16.8008C5.31076 17.7391 6.91797 18.2083 8.65495 18.2083C9.773 18.2083 10.8212 18.0311 11.7995 17.6768C12.7778 17.3224 13.6163 16.8482 14.3151 16.2542C15.0139 15.6603 15.6153 14.9765 16.1195 14.2028C16.6236 13.4291 16.9979 12.6206 17.2425 11.777C17.4871 10.9335 17.6094 10.0924 17.6094 9.25391C17.6094 9.07422 17.6044 8.93945 17.5944 8.84961C18.2233 8.40039 18.7474 7.85634 19.1667 7.21745ZM23 4.3125V18.6875C23 19.8754 22.5782 20.8912 21.7347 21.7347C20.8912 22.5782 19.8754 23 18.6875 23H4.3125C3.12457 23 2.10883 22.5782 1.2653 21.7347C0.421766 20.8912 0 19.8754 0 18.6875V4.3125C0 3.12457 0.421766 2.10883 1.2653 1.2653C2.10883 0.421766 3.12457 0 4.3125 0H18.6875C19.8754 0 20.8912 0.421766 21.7347 1.2653C22.5782 2.10883 23 3.12457 23 4.3125Z" fill="white"/>
</svg>
