<svg width="18" height="21" viewBox="0 0 18 21" fill="none" xmlns="http://www.w3.org/2000/svg">
<path d="M17.0468 7.20004C17.0468 6.25452 16.8264 5.31825 16.398 4.4447C15.9697 3.57115 15.3419 2.77743 14.5504 2.10884C13.7589 1.44026 12.8193 0.909906 11.7852 0.54807C10.7511 0.186234 9.64273 0 8.52342 0C7.4041 0 6.29575 0.186234 5.26164 0.54807C4.22754 0.909906 3.28792 1.44026 2.49645 2.10884C1.70498 2.77743 1.07715 3.57115 0.648806 4.4447C0.220464 5.31825 -1.6679e-08 6.25452 0 7.20004C0 8.62667 0.499229 9.95354 1.34548 11.0726H1.33574C4.20935 14.8732 8.52342 20.5715 8.52342 20.5715L15.7111 11.0726H15.7026C16.5798 9.91689 17.0463 8.57292 17.0468 7.20004ZM8.52342 10.2858C7.55461 10.2858 6.62548 9.96067 5.94043 9.38198C5.25538 8.80329 4.87052 8.01843 4.87052 7.20004C4.87052 6.38165 5.25538 5.59678 5.94043 5.0181C6.62548 4.43941 7.55461 4.11431 8.52342 4.11431C9.49222 4.11431 10.4214 4.43941 11.1064 5.0181C11.7915 5.59678 12.1763 6.38165 12.1763 7.20004C12.1763 8.01843 11.7915 8.80329 11.1064 9.38198C10.4214 9.96067 9.49222 10.2858 8.52342 10.2858Z" fill="#00AB21"/>
</svg>
