<svg width="21" height="18" viewBox="0 0 21 18" fill="none" xmlns="http://www.w3.org/2000/svg">
<path d="M15.4116 17.9997C11.3258 17.995 7.40889 16.5332 4.5198 13.9351C1.63071 11.3369 0.0052959 7.81438 0 4.14002C0 3.04204 0.485007 1.98904 1.34832 1.21266C2.21164 0.436271 3.38255 0.000102863 4.60346 0.000102863C4.862 -0.00166812 5.1201 0.019433 5.37404 0.0631015C5.61954 0.0957713 5.86088 0.15003 6.09459 0.225098C6.25896 0.276964 6.40543 0.366515 6.51952 0.484898C6.6336 0.60328 6.71135 0.746393 6.74508 0.900084L8.11611 6.29997C8.15306 6.44655 8.14861 6.59911 8.10316 6.74374C8.05771 6.88837 7.97271 7.02046 7.85591 7.12795C7.72581 7.25395 7.71581 7.26295 6.48488 7.83894C7.47062 9.78367 9.20012 11.3454 11.3585 12.2398C12.009 11.1239 12.019 11.1149 12.1591 10.9979C12.2787 10.8928 12.4256 10.8164 12.5864 10.7755C12.7472 10.7346 12.9169 10.7306 13.0798 10.7639L19.0844 11.9969C19.2498 12.0314 19.4027 12.1032 19.5288 12.2055C19.6548 12.3079 19.7499 12.4374 19.8049 12.5818C19.8894 12.7955 19.953 13.0153 19.995 13.2388C20.0353 13.465 20.0554 13.6937 20.0551 13.9228C20.0366 15.0161 19.538 16.0584 18.668 16.8222C17.798 17.5861 16.6274 18.0094 15.4116 17.9997Z" fill="#00AB21"/>
</svg>
