<svg width="27" height="31" viewBox="0 0 27 31" fill="none" xmlns="http://www.w3.org/2000/svg">
<g clip-path="url(#clip0)">
<path d="M6.34098 17.5858H4.34705C4.91396 18.8639 5.91231 19.8323 7.12825 20.2494C6.8313 19.5768 6.53343 18.6838 6.34098 17.5858Z" fill="#00AB21"/>
<path d="M7.28156 17.5858C7.5419 18.9298 7.97173 19.8947 8.30171 20.4776C8.34735 20.4791 8.38982 20.493 8.43569 20.493C8.48155 20.493 8.52402 20.4791 8.56943 20.4776C8.90056 19.8935 9.32993 18.9289 9.58976 17.5858H7.28156Z" fill="#00AB21"/>
<path d="M12.8762 13.8856H10.6728C10.7112 14.3043 10.7377 14.7397 10.7377 15.2071C10.7377 15.6748 10.7102 16.1097 10.6714 16.5286H12.8762C12.9725 16.1037 13.0397 15.6661 13.0397 15.2071C13.0397 14.7482 12.9725 14.3105 12.8762 13.8856Z" fill="#00AB21"/>
<path d="M9.74176 10.1642C10.0455 10.8475 10.3429 11.7328 10.5333 12.8284H12.5243C11.9571 11.5498 10.9583 10.5811 9.74176 10.1642Z" fill="#00AB21"/>
<path d="M8.57104 9.93687C8.52495 9.93535 8.48202 9.92114 8.43575 9.92114C8.38988 9.92114 8.34718 9.93508 8.30177 9.9366C7.95781 10.5413 7.53609 11.5037 7.28052 12.8284H9.5912C9.33667 11.5082 8.91656 10.5455 8.57104 9.93687Z" fill="#00AB21"/>
<path d="M9.74473 13.8856H7.12696C7.08489 14.3015 7.05457 14.735 7.05457 15.2071C7.05457 15.6789 7.08535 16.1125 7.12788 16.5286H9.74386C9.78611 16.1125 9.81695 15.679 9.81695 15.2071C9.81689 14.735 9.78651 14.3016 9.74473 13.8856Z" fill="#00AB21"/>
<path d="M4.34711 12.8284H6.33886C6.52946 11.7324 6.8271 10.8459 7.12969 10.1642C5.913 10.5814 4.91425 11.5498 4.34711 12.8284Z" fill="#00AB21"/>
<path d="M6.13372 15.2071C6.13372 14.7397 6.16048 14.3043 6.19893 13.8856H3.99522C3.899 14.3105 3.83179 14.7482 3.83179 15.2071C3.83179 15.6661 3.899 16.1037 3.99522 16.5286H6.20031C6.16118 16.1097 6.13372 15.6748 6.13372 15.2071Z" fill="#00AB21"/>
<path d="M10.5306 17.5857C10.3386 18.6837 10.041 19.5761 9.74359 20.2493C10.9593 19.8319 11.9574 18.8638 12.5243 17.5857H10.5306Z" fill="#00AB21"/>
<path d="M24.565 3.35599L13.8922 0.072565C12.9098 -0.229658 11.9 0.439739 11.6368 1.56762L10.6743 5.69237H14.8812C15.4497 5.69237 15.9517 5.99439 16.2893 6.45922C16.6396 6.56692 17.2949 6.76852 17.896 6.95339L20.9271 3.70849L21.7758 3.96962L19.8762 7.56266C20.4337 7.73419 21.0026 7.90915 21.3756 8.02399L22.5272 7.24683L23.093 7.42087L22.1999 8.97374L22.297 10.8313L21.7312 10.6573L21.0723 9.32327C20.6993 9.20843 20.1304 9.03347 19.5729 8.86194L19.6534 13.0643L18.8048 12.8031L17.5927 8.2528C17.2966 8.16175 17.0012 8.07084 16.7227 7.9852V20.7002L17.6712 16.5579L18.5605 16.8315L16.7227 24.8589V26.8362C16.7227 28.0039 15.8982 28.9506 14.8812 28.9506H11.7048L18.1306 30.9275C19.113 31.2297 20.1228 30.5604 20.386 29.4324L23.3666 16.6611L22.4749 16.3945L22.714 15.3734L23.6049 15.6398L25.8673 5.94563C26.1305 4.81768 25.5474 3.65827 24.565 3.35599ZM18.0274 15.0259L17.1382 14.7523L17.3773 13.7313L18.2666 14.0049L18.0274 15.0259ZM19.155 14.279L20.0452 14.5526L19.8078 15.5736L18.9176 15.3L19.155 14.279ZM18.6072 28.8851L17.7179 28.6115L20.3392 17.3787L21.2285 17.6523L18.6072 28.8851ZM21.5855 16.1208L20.6962 15.8472L20.9354 14.8261L21.8247 15.0997L21.5855 16.1208Z" fill="#00AB21"/>
<path d="M14.8811 6.74963H1.06946V27.8934H14.8811C15.3889 27.8934 15.8019 27.4191 15.8019 26.8362V7.80682C15.8019 7.22391 15.3889 6.74963 14.8811 6.74963ZM13.0395 25.779H3.83178V24.7218H13.0395V25.779ZM8.43566 21.5502C5.3845 21.5502 2.91101 18.7103 2.91101 15.2071C2.91101 11.7039 5.3845 8.86401 8.43566 8.86401C11.4868 8.86401 13.9603 11.7039 13.9603 15.2071C13.9603 18.7103 11.4869 21.5502 8.43566 21.5502Z" fill="#00AB21"/>
</g>
<defs>
<clipPath id="clip0">
<rect width="27" height="31" fill="white"/>
</clipPath>
</defs>
</svg>
