<svg width="23" height="31" viewBox="0 0 23 31" fill="none" xmlns="http://www.w3.org/2000/svg">
<path d="M3.28018 5.36266C3.54081 5.53106 5.29513 6.50416 6.14267 6.97273C6.14599 7.35042 6.15326 8.00356 6.16444 8.01466C6.25785 8.94993 6.4182 9.98899 6.46464 10.2824C6.38758 10.3315 5.99152 10.6288 5.99152 11.5537C5.99187 11.559 5.99228 11.5638 5.99263 11.5691C5.99204 11.5933 5.99152 11.6178 5.99152 11.6429C6.16199 14.2137 7.05248 13.1057 7.23611 14.2318C7.54155 16.1041 8.98543 17.4587 9.88418 17.9263C10.4036 18.1965 10.9382 18.3343 11.5 18.3475C12.0619 18.3344 12.5965 18.1965 13.1159 17.9263C14.0147 17.4587 15.4585 16.104 15.764 14.2318C15.9476 13.1057 16.8381 14.2137 17.0086 11.6429C17.0086 11.6177 17.008 11.5933 17.0075 11.5691C17.0078 11.5638 17.0082 11.559 17.0086 11.5537C17.0086 10.6288 16.6124 10.3315 16.5354 10.2824C16.5819 9.98899 16.7423 8.95 16.8357 8.01466C16.8468 8.00356 16.8541 7.35049 16.8574 6.97273C17.3229 6.71532 18.0617 6.30589 18.6766 5.96108V8.44621C18.5058 8.56195 18.3857 8.76623 18.3857 9.00981C18.3857 9.22545 18.4811 9.40815 18.62 9.5289C18.62 9.5289 18.373 11.123 18.2931 11.5918C18.2133 12.0605 19.7017 11.9665 19.6347 11.5918C19.5678 11.217 19.308 9.5289 19.308 9.5289C19.447 9.40815 19.5423 9.22545 19.5423 9.00981C19.5423 8.76617 19.4227 8.56202 19.2521 8.44621V5.63638C19.4812 5.50587 19.6518 5.40663 19.7198 5.36266C19.9043 5.24352 20.0036 5.09109 19.9826 4.93271C20.0078 4.76759 19.9038 4.59011 19.6247 4.4332C17.6329 3.31376 12.5549 0.460554 12.0528 0.185572C11.8337 0.0656216 11.6534 0.0126298 11.5 0C11.3467 0.0126298 11.1664 0.0656216 10.9473 0.185572C10.4452 0.460554 5.36719 3.31383 3.3754 4.4332C3.09621 4.59011 2.99226 4.76759 3.01752 4.93271C2.99645 5.09109 3.0958 5.24352 3.28018 5.36266Z" fill="#00AB21"/>
<path d="M18.2603 21.443C17.3232 21.0551 15.6921 19.9367 15.4127 19.7641C15.3403 19.7158 15.2563 19.6876 15.1665 19.6876C14.9704 19.6876 14.8017 19.8197 14.7231 20.0109C13.9504 21.496 12.518 25.8144 11.5186 25.8945C11.5125 25.8939 11.5062 25.8925 11.5 25.8917C11.4939 25.8925 11.4876 25.8939 11.4815 25.8945C10.482 25.8144 9.04961 21.496 8.27698 20.0109C8.19835 19.8197 8.02962 19.6876 7.83354 19.6876C7.74367 19.6876 7.65981 19.7158 7.58734 19.7641C7.30792 19.9367 5.67681 21.0551 4.73976 21.443C1.59441 22.7451 0.179749 24.0731 0.179749 24.9787C0.179749 25.0049 0.179749 25.0349 0.179749 25.0678C0.179749 26.1707 0.179749 30.9109 0.179749 30.9109C0.179749 30.9686 0.179749 31 0.179749 31H11.4815H11.5H11.5186H22.8203C22.8203 31 22.8203 30.9686 22.8203 30.9109C22.8203 30.9109 22.8203 26.1705 22.8203 25.0678C22.8203 25.0349 22.8203 25.0049 22.8203 24.9787C22.8202 24.0731 21.4057 22.7451 18.2603 21.443Z" fill="#00AB21"/>
</svg>
